<svg width="25" height="25" viewBox="0 0 25 25" fill="none" xmlns="http://www.w3.org/2000/svg">
<g id="Group">
<path id="Vector" d="M14.3132 1.00862C12.417 1.25145 11.0921 2.2351 10.6192 3.75378C10.4741 4.21885 10.4741 5.4124 10.6192 6.16968C10.9423 7.83242 11.2559 8.72963 12.5996 11.8493C13.1193 13.0676 13.6858 14.4669 13.6577 14.4875C13.6203 14.5204 12.7588 14.3722 12.3983 14.2734C12.183 14.2117 11.6726 14.0389 11.2606 13.8825C9.40662 13.191 8.28298 13.1046 7.18275 13.5779C6.58815 13.8331 6.06847 14.3393 5.94674 14.7838L5.89524 14.9855L5.44578 15.0348C4.39705 15.146 3.71818 15.5246 3.35768 16.1831C3.25936 16.3683 3.21254 16.533 3.19382 16.7264L3.17509 17.0021L2.81927 17.031C2.40727 17.0598 1.79395 17.2367 1.4194 17.4302C1.03081 17.636 0.567305 18.0599 0.365985 18.3974C0.0663476 18.9077 0.0242111 19.0723 0.0288929 19.6897C0.0288929 20.1712 0.0476203 20.2947 0.159984 20.6157C0.47835 21.5376 0.955897 22.192 1.70499 22.7188C3.47005 23.97 6.41492 24.6573 11.1436 24.9207C12.3047 24.9866 16.0314 24.9866 17.4407 24.9207C19.5849 24.8219 21.4858 24.682 23.1525 24.505C24.3604 24.3733 24.3745 24.3857 22.8482 24.1963C21.4483 24.0194 19.6084 23.7642 19.5756 23.7395C19.5662 23.7313 19.6177 23.6613 19.6926 23.5831L19.8284 23.4391H20.2498C22.0663 23.4226 23.2649 22.8629 23.719 21.8134C23.9016 21.3936 23.9297 20.7145 23.7892 20.2206C23.6301 19.6609 23.4147 19.3152 23.0074 18.9571L22.6562 18.6484L22.7077 18.4467C22.8622 17.8006 22.6375 17.0845 22.1459 16.6523C21.9446 16.4753 21.364 16.1914 21.2049 16.1914C21.144 16.1914 21.1253 16.1337 21.1065 15.8703C21.0785 15.4958 20.9567 15.2406 20.6852 14.9937C20.4698 14.8003 20.0204 14.5986 19.716 14.5657C19.3087 14.5204 19.3134 14.5204 19.1495 14.2076C19.0653 14.043 18.6767 13.3227 18.2928 12.6107C16.8882 10.0096 16.2515 8.72963 16.1251 8.26868C15.9846 7.73776 16.1017 7.30972 16.4481 7.09159C16.7009 6.93108 17.0006 6.857 17.6748 6.78292C18.6579 6.68003 18.9295 6.59771 19.2759 6.3055L19.4679 6.13676L19.6364 6.23142C19.9361 6.39193 20.1327 6.68414 20.3481 7.26445C20.6009 7.95177 20.7882 8.24398 21.0738 8.39215L21.233 8.47035L21.144 8.35099C21.0925 8.28102 21.027 8.19048 20.9895 8.14521C20.8865 8.01351 20.9193 7.99704 21.1159 8.08759C21.3453 8.1946 21.4155 8.16167 21.233 8.0382C20.9193 7.82007 20.8256 7.67602 20.6009 7.09571C20.4089 6.60183 20.3247 6.45778 20.0906 6.23553C19.9829 6.13676 19.9033 6.05033 19.908 6.0421C19.9174 6.03798 20.0859 5.97625 20.2872 5.90216C20.9474 5.66345 21.4109 5.33008 21.6403 4.93498C21.9165 4.46579 21.9961 3.9431 21.8229 3.69616C21.6122 3.3916 21.2751 3.27225 20.3387 3.16524C20.0297 3.13231 19.6505 3.07469 19.496 3.04177C19.098 2.95122 18.5924 2.72075 18.3864 2.53554C18.2272 2.39149 18.2132 2.3668 18.26 2.26391C18.2834 2.20217 18.3068 2.11163 18.3068 2.06224C18.3068 1.97992 18.3021 1.98404 18.171 2.09105L18.0353 2.20629L17.7169 1.9223C17.1785 1.45312 16.5605 1.14856 15.8816 1.02509C15.5398 0.959236 14.7486 0.951005 14.3132 1.00862ZM15.8863 2.59316C16.1812 2.67959 16.4949 2.93476 16.6541 3.21874C16.7618 3.41218 16.7852 3.50272 16.7852 3.76201C16.7805 3.94722 16.7524 4.12831 16.7103 4.21474L16.6354 4.35878L16.6588 4.12008C16.7103 3.548 16.2234 3.1035 15.5398 3.1035H15.3151L15.4275 3.2064C15.493 3.2599 15.5445 3.34221 15.5445 3.3916C15.5445 3.50684 15.3806 3.63854 15.2402 3.63854C15.0951 3.63854 14.9359 3.50272 14.9359 3.38337C14.9359 3.29694 14.9359 3.29694 14.8141 3.39572C14.655 3.5233 14.5192 3.78671 14.5145 3.95545C14.5145 4.02953 14.5005 4.09127 14.4817 4.09127C14.4583 4.09127 14.2757 4.04599 14.0697 3.99249C13.6999 3.89783 13.6999 3.89371 13.8637 3.8649C14.0323 3.83609 14.0323 3.83609 14.0604 3.6015C14.1025 3.17347 14.36 2.84833 14.8048 2.65489C15.1372 2.50673 15.5258 2.48615 15.8863 2.59316ZM15.9706 3.2064C16.4153 3.34633 16.6588 3.70028 16.6026 4.13654C16.5558 4.50695 16.4949 4.59749 16.3217 4.56868C16.2468 4.55222 16.1766 4.53576 16.1672 4.52753C16.1578 4.52341 16.1953 4.43287 16.2468 4.33409C16.3685 4.0995 16.3638 3.98014 16.2327 3.76201C16.1251 3.58504 15.891 3.43276 15.7084 3.43276C15.6475 3.42864 15.5867 3.37925 15.5398 3.28871L15.4649 3.14466H15.6147C15.699 3.14466 15.8582 3.17347 15.9706 3.2064ZM14.964 3.79082C14.9218 3.86902 14.8891 3.98426 14.8891 4.05011C14.8891 4.18593 14.8656 4.19416 14.6831 4.13242C14.5894 4.10361 14.5613 4.06657 14.5613 3.9678C14.5613 3.82375 14.669 3.57269 14.7814 3.46568C14.8516 3.39572 14.861 3.39572 14.9499 3.5233C15.0342 3.64677 15.0342 3.66324 14.964 3.79082ZM16.008 9.72563C16.1297 9.83263 16.3357 10.0878 16.4668 10.2895L16.715 10.6558L16.5839 10.6805C16.317 10.7381 15.7927 10.7216 15.7318 10.6558C15.699 10.6228 15.6147 10.594 15.5445 10.594C15.4368 10.594 15.4087 10.5735 15.3853 10.4788C15.2823 10.0261 15.2964 9.88202 15.4509 9.65566C15.5913 9.45811 15.7458 9.47457 16.008 9.72563ZM17.3657 11.8534C17.6326 12.3391 17.8386 12.7465 17.8293 12.7548C17.8199 12.763 17.5577 12.7836 17.2393 12.8C16.7197 12.8247 16.6588 12.8206 16.6026 12.7548C16.5698 12.7136 16.4622 12.6725 16.3685 12.656L16.1906 12.6313L15.9144 11.9728C15.7646 11.6106 15.6428 11.2896 15.6428 11.2608C15.6382 11.2361 15.685 11.1702 15.7365 11.125C15.8207 11.0509 15.9191 11.0303 16.2889 11.0056C16.5371 10.9891 16.7712 10.9727 16.8133 10.9686C16.8648 10.9644 17.024 11.2196 17.3657 11.8534ZM18.6626 14.2734C18.8031 14.541 18.9061 14.7714 18.8967 14.7838C18.8171 14.8538 17.4641 14.9031 17.4641 14.8332C17.4641 14.7714 17.1878 14.6603 17.0989 14.685C17.0333 14.7056 16.9725 14.5862 16.7337 13.9771L16.4528 13.2445L16.5558 13.1746C16.6354 13.1211 16.7665 13.1046 17.0755 13.1005C17.3002 13.0964 17.6045 13.084 17.745 13.0676L18.0025 13.0429L18.2085 13.4133C18.3162 13.6149 18.5222 14.0059 18.6626 14.2734ZM6.88311 14.6151C7.04229 14.8003 7.05165 14.8373 7.07038 15.2242C7.07038 15.2694 7.05634 15.4793 7.04229 15.6892L7.00952 16.0761L6.80352 15.895C6.35874 15.5205 6.26042 15.113 6.51324 14.6768C6.59283 14.5369 6.67243 14.4216 6.68647 14.4216C6.7052 14.4216 6.79415 14.5122 6.88311 14.6151ZM19.4258 15.8292C19.613 16.2449 19.7863 16.6276 19.8097 16.6811C19.8331 16.7346 19.8471 16.7881 19.8331 16.7964C19.8003 16.8252 19.2385 16.8828 18.6673 16.9116C18.1663 16.9363 18.1055 16.9322 18.0493 16.8663C18.0165 16.8252 17.9182 16.7717 17.8339 16.747C17.6888 16.7017 17.6748 16.6811 17.5577 16.2901C17.4875 16.0679 17.3938 15.7592 17.347 15.6069L17.2581 15.3312L17.3751 15.2489C17.4688 15.1789 17.5577 15.1624 17.9791 15.1583C18.2506 15.1583 18.5877 15.1419 18.7282 15.1213C18.8686 15.1048 19.0091 15.0884 19.0372 15.0842C19.0653 15.0842 19.2432 15.4176 19.4258 15.8292ZM8.01611 15.3847C8.17998 15.4629 8.46557 15.5781 8.65753 15.6399C8.8448 15.7057 9.00866 15.788 9.02271 15.8209C9.03207 15.8539 9.07421 15.9362 9.11166 15.9979C9.1538 16.0761 9.17721 16.2449 9.17721 16.4836V16.8499L9.0508 16.8252C8.75116 16.7634 8.16593 16.5906 7.80075 16.4548C7.4262 16.3148 7.40747 16.3066 7.37938 16.1584C7.30447 15.751 7.37938 15.3682 7.55261 15.2941C7.69775 15.2324 7.69307 15.2324 8.01611 15.3847ZM10.3243 16.0679C10.5584 16.109 10.8767 16.1584 11.0312 16.1708C11.3589 16.2037 11.3636 16.2078 11.4994 16.3766C11.5743 16.4712 11.6024 16.5865 11.6211 16.8416L11.6445 17.1791L11.3824 17.1544C10.8159 17.105 9.98717 17.0063 9.78117 16.9692C9.52835 16.9198 9.50494 16.8828 9.50494 16.4753C9.50494 16.2366 9.51898 16.1872 9.63603 16.0761C9.70626 16.0061 9.79521 15.9609 9.83267 15.9732C9.87012 15.9815 10.0949 16.0267 10.3243 16.0679ZM20.5307 16.035C20.6664 16.0885 20.6711 16.1049 20.5775 16.3025C20.5026 16.463 20.3762 16.6029 20.3153 16.6029C20.2966 16.6029 20.2404 16.4959 20.1889 16.3642L20.0999 16.1255L20.2217 16.0597C20.3762 15.9773 20.3855 15.9773 20.5307 16.035ZM13.625 16.4013C13.625 16.4177 13.6765 16.4836 13.7326 16.5494C13.8122 16.6317 13.8544 16.7387 13.8731 16.9198L13.9059 17.1791H12.9508H11.9957L11.9629 16.8746C11.9301 16.5823 11.9348 16.5618 12.0519 16.4301L12.1783 16.2942L12.8993 16.3313C13.2972 16.3519 13.625 16.3807 13.625 16.4013ZM3.92887 16.9486C3.87268 17.0021 3.87268 17.2738 3.92887 17.3232C3.95228 17.3479 3.96164 17.4549 3.94759 17.566L3.9195 17.7677L3.80246 17.566C3.67605 17.3479 3.61518 16.8993 3.67605 16.6153L3.70882 16.4589L3.83991 16.6852C3.9195 16.8252 3.95696 16.9281 3.92887 16.9486ZM14.3741 16.7552C14.4021 16.8869 14.4396 17.0268 14.449 17.0639C14.4677 17.1215 14.4443 17.138 14.36 17.138C14.257 17.138 14.243 17.1174 14.2196 16.8828C14.1961 16.6647 14.2336 16.5206 14.3085 16.5206C14.3132 16.5206 14.346 16.6276 14.3741 16.7552ZM20.1187 17.5578C20.2779 18.0475 20.4839 18.8995 20.4511 18.9283C20.3949 18.9777 19.7394 19.0312 19.1636 19.0312C18.5409 19.0312 18.4941 19.0271 18.3677 18.9365C18.2974 18.883 18.1991 18.8295 18.157 18.813C18.1055 18.7966 18.0727 18.7431 18.0727 18.6772C18.0727 18.6196 18.0306 18.3027 17.9744 17.9776L17.8761 17.3849L17.9838 17.3067C18.068 17.245 18.2132 17.2285 18.7703 17.2038C19.1448 17.1873 19.5475 17.1585 19.6645 17.1421C19.7816 17.1215 19.8986 17.105 19.922 17.1009C19.9501 17.1009 20.0391 17.3067 20.1187 17.5578ZM5.21169 17.8376C5.45046 17.9529 5.47856 17.9817 5.47856 18.101C5.47856 18.171 5.50665 18.2657 5.5441 18.3109C5.58156 18.3603 5.61433 18.5373 5.62369 18.7513L5.64242 19.1094L5.34278 18.9653C5.03378 18.813 4.57964 18.5249 4.43919 18.385C4.34555 18.2945 4.26128 17.85 4.29405 17.6318C4.33619 17.3849 4.42514 17.3643 4.70137 17.5454C4.83246 17.636 5.06187 17.7635 5.21169 17.8376ZM22.2583 17.7018C22.3051 17.9693 22.291 18.2698 22.2161 18.4591C22.1459 18.6361 21.8978 18.9489 21.8229 18.9489C21.762 18.9489 21.8275 18.2327 21.9025 18.1381C21.9399 18.0805 21.9586 17.9899 21.9446 17.9117C21.9259 17.8047 21.9493 17.7512 22.0429 17.6607C22.1085 17.5989 22.1787 17.5495 22.1974 17.5495C22.2115 17.5495 22.2395 17.6195 22.2583 17.7018ZM21.3921 18.2327C21.4951 18.2986 21.4998 18.3192 21.4717 18.5949C21.4155 19.0723 21.364 19.1835 21.1768 19.2164C21.0878 19.2287 21.0082 19.237 20.9989 19.2287C20.9942 19.2205 20.9661 19.06 20.9333 18.8665C20.9005 18.6731 20.8678 18.4673 20.8537 18.4097C20.8303 18.3109 20.8444 18.2945 21.0316 18.2368C21.2891 18.1545 21.2657 18.1545 21.3921 18.2327ZM6.68647 18.3685C6.93929 18.4344 7.26234 18.5126 7.40747 18.5414C7.55261 18.5702 7.67434 18.6031 7.66966 18.6155C7.66029 18.7019 7.68838 18.7842 7.74457 18.8336C7.82416 18.9077 7.87566 19.7308 7.80075 19.7308C7.70711 19.7308 6.9112 19.5292 6.47579 19.3934C5.99356 19.2452 6.01229 19.2699 5.96547 18.7719C5.93738 18.4756 5.94206 18.4467 6.04038 18.3521C6.10124 18.2945 6.17147 18.2492 6.19488 18.2492C6.21829 18.2492 6.43833 18.3027 6.68647 18.3685ZM9.35044 18.8089C10.0012 18.8707 10.1136 18.8912 10.1136 18.9489C10.1136 18.9859 10.1557 19.0517 10.2072 19.0929C10.2915 19.1588 10.3009 19.2205 10.3009 19.6115V20.056L10.151 20.0395C10.0668 20.0272 9.7718 20.0025 9.50026 19.9778C8.93375 19.9284 8.30171 19.8378 8.25489 19.7967C8.24084 19.7843 8.20339 19.5991 8.17998 19.3892L8.13316 19.0024L8.26893 18.8501C8.36725 18.7431 8.4328 18.706 8.49834 18.7184C8.54984 18.7307 8.93375 18.7719 9.35044 18.8089ZM0.98867 18.9941C1.02144 19.0682 1.14317 19.2699 1.2649 19.4427C1.46154 19.7267 1.47558 19.7679 1.4194 19.8378C1.37258 19.8913 1.36322 19.9654 1.38194 20.0601C1.39599 20.1383 1.40535 20.2947 1.39599 20.4099C1.38663 20.521 1.38194 20.8997 1.38194 21.2454C1.38194 21.587 1.37726 21.871 1.37726 21.871C1.37258 21.871 1.27894 21.7516 1.17126 21.6035C0.909079 21.2495 0.637532 20.6569 0.534532 20.2288C0.450259 19.8461 0.464304 19.2411 0.562623 18.9982C0.609441 18.8871 0.642214 18.8665 0.773306 18.8665C0.899715 18.8665 0.93717 18.8871 0.98867 18.9941ZM14.6971 19.3563C14.6877 19.6279 14.6643 19.8625 14.6456 19.879C14.6081 19.9078 13.2504 20.0313 13.2223 20.0066C13.213 20.0025 13.1942 19.8173 13.1755 19.6074C13.1474 19.2411 13.1521 19.2081 13.2551 19.0641C13.3815 18.8954 13.4143 18.8871 14.2757 18.8748L14.7111 18.8665L14.6971 19.3563ZM12.6418 18.9694C12.6418 19.0024 12.6792 19.06 12.7307 19.1011C12.801 19.1629 12.8197 19.2534 12.8384 19.6156L12.8618 20.0601H11.7756H10.6894L10.6567 19.9325C10.6426 19.8625 10.6286 19.6609 10.6286 19.4839C10.6286 19.2205 10.6426 19.1546 10.7222 19.0929C10.7737 19.0517 10.8159 18.9941 10.8159 18.9612C10.8159 18.92 10.9938 18.9077 11.7288 18.9077C12.4966 18.9077 12.6418 18.9159 12.6418 18.9694ZM20.5354 19.5539C20.5634 19.8584 20.5354 20.521 20.4792 20.8462C20.4558 20.9614 20.423 21.0067 20.3434 21.0232C20.0438 21.089 19.2572 21.1302 18.7984 21.1055C18.3068 21.0767 18.2787 21.0725 18.157 20.9573L18.0259 20.8338L18.0727 20.4593C18.0961 20.2494 18.1195 19.9407 18.1195 19.772C18.1195 19.3398 18.1102 19.344 19.1963 19.3316C19.6739 19.3275 20.1468 19.3069 20.2498 19.2863C20.3528 19.2616 20.4511 19.2452 20.4698 19.2411C20.4839 19.2411 20.5166 19.381 20.5354 19.5539ZM2.74904 20.9285C2.89418 21.0355 2.93163 21.089 2.90354 21.1302C2.83332 21.2289 2.84736 21.3565 2.94568 21.4635C3.01123 21.5417 3.03932 21.6693 3.06273 22.0356C3.08145 22.2949 3.10486 22.6242 3.12359 22.7641C3.13764 22.9164 3.13295 23.0234 3.10486 23.0234C3.03463 23.0234 2.41663 22.6859 2.11699 22.4801C1.84545 22.2949 1.83608 22.2826 1.78458 22.0274C1.64413 21.303 1.68626 20.3317 1.86417 20.2947C1.91099 20.2865 2.06549 20.3811 2.24809 20.5334C2.41663 20.6692 2.64136 20.8462 2.74904 20.9285ZM23.3351 21.0314C23.4334 21.0643 23.4287 21.2289 23.3164 21.5458C23.1385 22.0603 22.7686 22.4348 22.174 22.6941C21.7667 22.8752 21.6496 22.8999 21.7011 22.7847C21.7714 22.62 21.865 22.2537 21.865 22.1303C21.865 22.048 21.9025 21.9615 21.9586 21.9121C22.0101 21.8669 22.0523 21.7887 22.0523 21.7352C22.057 21.6611 22.1225 21.6199 22.3987 21.5088C22.586 21.4306 22.8576 21.2907 22.9933 21.1919C23.293 20.9779 23.2461 21.0026 23.3351 21.0314ZM20.3668 21.373C20.3668 21.55 19.8799 22.6489 19.7067 22.8629C19.5803 23.0193 19.0418 23.1098 18.0727 23.1345C17.3236 23.1551 17.2955 23.1551 17.2066 23.0687C17.1223 22.9822 17.1223 22.974 17.1972 22.867C17.3798 22.62 17.6467 22.122 17.7497 21.8422C17.848 21.5705 17.8761 21.5335 18.0399 21.4635C18.1991 21.3936 18.2974 21.3853 18.9295 21.4059C19.3228 21.4141 19.7675 21.4059 19.922 21.3853C20.3106 21.3318 20.3668 21.3318 20.3668 21.373ZM4.29873 21.8792C4.74351 22.1138 4.77628 22.1385 4.77628 22.262C4.77628 22.3361 4.81842 22.4431 4.86992 22.4966C4.94014 22.5789 4.96824 22.7106 5.01037 23.1263C5.03378 23.4185 5.04783 23.6654 5.03378 23.6737C5.00569 23.6983 4.10209 23.4349 3.77905 23.3115C3.61986 23.2497 3.559 23.2004 3.54027 23.1139C3.41855 22.62 3.37641 21.5952 3.47473 21.5088C3.51686 21.4718 3.56368 21.48 3.67137 21.5458C3.75096 21.5911 4.03187 21.7393 4.29873 21.8792ZM21.4343 21.8998C21.5466 22.0068 21.5466 22.0192 21.4951 22.2784C21.4624 22.4266 21.3875 22.6406 21.3219 22.7559C21.2095 22.9658 21.2049 22.9699 20.9614 22.9987C20.8303 23.011 20.5962 23.0234 20.4511 23.0234H20.1842L20.3528 22.7024C20.4464 22.5295 20.5681 22.2661 20.6243 22.1179L20.7273 21.8504L21.0035 21.8257C21.1534 21.8134 21.2891 21.801 21.2985 21.7969C21.3079 21.7928 21.3687 21.8381 21.4343 21.8998ZM13.5828 22.2291C13.5594 22.2702 13.4892 22.3443 13.4283 22.3937L13.3206 22.4842L12.829 22.3525L12.3375 22.2208L12.8056 22.1961C13.7046 22.155 13.6343 22.1509 13.5828 22.2291ZM6.13401 22.6941C6.49452 22.8299 6.81288 22.9411 6.83629 22.9411C6.86438 22.9411 6.88311 22.9987 6.88311 23.0728C6.88311 23.1427 6.92056 23.2415 6.97206 23.2868C7.03293 23.3485 7.07038 23.4802 7.10315 23.7436C7.13125 23.9494 7.14529 24.1181 7.14529 24.1223C7.13125 24.1346 6.46642 24.0153 5.94206 23.9041L5.4411 23.7971L5.41301 23.649C5.3381 23.2621 5.32406 22.6489 5.38492 22.5501C5.41769 22.4925 5.45515 22.4472 5.46451 22.4472C5.46919 22.4472 5.77351 22.5583 6.13401 22.6941ZM8.3813 23.3979C8.72775 23.4884 9.04144 23.5708 9.07421 23.579C9.1023 23.5913 9.13039 23.649 9.13039 23.7148C9.13039 23.7848 9.17721 23.8671 9.24276 23.9247C9.32235 23.9906 9.3598 24.0729 9.37385 24.2005C9.38789 24.3569 9.37853 24.3816 9.29426 24.3816C9.13507 24.3857 7.59475 24.2046 7.54325 24.1799C7.51984 24.1634 7.4777 23.9782 7.45429 23.7642C7.41216 23.3979 7.41684 23.3691 7.50579 23.2785C7.56666 23.225 7.6322 23.1962 7.67902 23.2086C7.71648 23.225 8.03484 23.3074 8.3813 23.3979ZM19.1495 23.4926L18.9857 23.6325L18.5503 23.5584C18.3115 23.5173 18.1008 23.472 18.0868 23.4596C18.068 23.4473 18.2038 23.4349 18.3817 23.4308C18.5596 23.4308 18.7984 23.4144 18.9154 23.3979C19.3181 23.3321 19.3274 23.3362 19.1495 23.4926ZM10.6333 23.8877C11.0031 23.9576 11.3543 24.0194 11.4151 24.0317C11.4807 24.0441 11.5181 24.0852 11.5181 24.1387C11.5181 24.184 11.5696 24.2663 11.6352 24.3239C11.8412 24.505 11.7944 24.5544 11.4619 24.5297C11.2981 24.5174 10.9563 24.4968 10.6988 24.4844C10.4413 24.4721 10.1229 24.4515 9.99185 24.4392L9.74839 24.4145L9.7203 24.2087C9.69689 24.0523 9.70626 23.9864 9.76244 23.9329C9.79989 23.8918 9.83267 23.8383 9.83267 23.8136C9.83267 23.7436 9.8748 23.7477 10.6333 23.8877ZM13.138 24.2581C14.1587 24.3692 14.1259 24.361 14.1493 24.4844L14.1727 24.5873H13.625C13.3253 24.5873 12.8525 24.575 12.5809 24.5585C12.1034 24.5338 12.08 24.5297 12.08 24.4433C12.08 24.3898 12.1127 24.328 12.1502 24.2992C12.1876 24.2704 12.2204 24.221 12.2204 24.1881C12.2204 24.1511 12.2485 24.1346 12.286 24.147C12.3187 24.1593 12.7026 24.2087 13.138 24.2581ZM15.8957 24.5009L16.4107 24.5297L15.6241 24.5626C15.1887 24.5791 14.8282 24.5873 14.8141 24.5791C14.8048 24.5668 14.8048 24.5297 14.8235 24.4927C14.8469 24.4351 14.8984 24.4309 15.1138 24.4474C15.2636 24.4597 15.6147 24.4844 15.8957 24.5009Z" fill="#E5E5E5"/>
</g>
</svg>
