<svg width="39" height="54" viewBox="0 0 39 54" fill="none" xmlns="http://www.w3.org/2000/svg">
<rect width="39" height="54" fill="#1E1E1E"/>
<g filter="url(#filter0_d_3229_0)">
<path d="M21.1777 7.00423C19.6549 7.02113 16.1019 7.1338 15.1668 7.19013C14.6806 7.2183 13.8311 7.269 13.2701 7.3028C11.6992 7.39857 9.96277 7.63518 9.58342 7.80981C9.52465 7.83798 9.38039 7.88868 9.26284 7.92248C9.14529 7.95628 9.00103 8.00698 8.94226 8.03515C7.87901 8.50836 7.21113 8.89144 6.91193 9.18438C6.85315 9.24072 6.74095 9.33085 6.66081 9.38155C6.37763 9.56746 5.97156 9.97307 5.66701 10.3674C5.15943 11.0322 5.02585 11.2462 4.7213 11.8941C4.43278 12.4969 4.19235 13.3644 4.04809 14.3165C4.02671 14.4686 4.00534 21.5893 4.00534 30.1296L4 45.6667H10.5719H17.1437V43.8359V42.005L17.2666 41.9994C17.3468 41.9937 17.3575 41.9825 17.2987 41.9656C17.2185 41.9487 17.2025 41.8022 17.1758 40.9177C17.1384 39.5375 17.0369 19.9668 17.0689 19.9105C17.085 19.888 21.1243 19.8654 26.0452 19.8654H35L34.9733 16.5248C34.9519 12.9081 34.9305 12.6208 34.6367 11.6406C34.3428 10.6434 33.9314 10.0125 33.146 9.33648C32.8254 9.06044 31.8156 8.50836 31.4095 8.37879C31.2759 8.33936 31.1477 8.28302 31.1156 8.26049C31.0889 8.23796 30.9554 8.18726 30.8218 8.15345C30.6882 8.11402 30.5333 8.06332 30.4745 8.03515C30.2501 7.93375 29.0159 7.65771 27.9099 7.46617C26.5314 7.22957 25.1208 7.08873 23.6889 7.04929C23.1332 7.03239 22.5402 7.00986 22.3799 7.00423C22.2196 6.99859 21.6799 6.99859 21.1777 7.00423ZM30.3409 10.6491C32.4995 11.4378 33.1193 14.3221 31.495 16.0065C30.8752 16.6487 30.1967 16.9473 29.3525 16.9529C28.4922 16.9529 27.819 16.6544 27.1886 15.9783C26.526 15.2798 26.2428 14.4911 26.2963 13.5278C26.3444 12.6771 26.6436 11.9786 27.2206 11.3871C28.0274 10.542 29.2616 10.2547 30.3409 10.6491ZM4.19769 40.8332C4.18166 40.8727 4.17098 40.8445 4.17098 40.7656C4.17098 40.6868 4.18166 40.6586 4.19769 40.6924C4.20838 40.7318 4.20838 40.7994 4.19769 40.8332Z" fill="#E5E5E5"/>
<path d="M27.2419 23.071C27.2419 23.0935 27.0495 23.133 26.8198 23.1499C26.387 23.1837 25.9008 23.2907 25.8527 23.3583C25.8367 23.3808 25.7138 23.4428 25.5749 23.4991C25.4306 23.5555 25.3184 23.6174 25.3184 23.64C25.3184 23.6625 25.2222 23.7245 25.1047 23.7808C24.9872 23.8371 24.891 23.8991 24.891 23.9217C24.891 23.9498 24.8375 23.978 24.7734 24.0005C24.704 24.0174 24.5811 24.0963 24.4903 24.1752C24.1804 24.4568 24.0468 24.5695 23.8544 24.7385C23.7422 24.8286 23.5285 25.0258 23.3789 25.1723C23.2293 25.3244 23.0797 25.4427 23.0476 25.4427C23.0156 25.4427 22.9515 25.4878 22.9034 25.5385C22.8606 25.5948 22.7164 25.73 22.5935 25.837C22.2462 26.1356 22.1126 26.2933 22.0004 26.5412C21.8615 26.8511 21.8775 27.1496 22.0539 27.6172C22.2409 28.1186 22.4599 28.4172 22.6736 28.4622C22.8927 28.5017 23.4858 28.3946 23.5819 28.2932C23.6247 28.2482 23.7048 28.1975 23.7583 28.1806C23.8064 28.1637 24.0414 27.8932 24.2712 27.5834C24.5009 27.2736 24.7093 27.0201 24.7307 27.0201C24.7521 27.0201 24.8749 26.913 25.0085 26.7778C25.1421 26.6483 25.3291 26.4792 25.4253 26.4004C25.5161 26.3215 25.639 26.2145 25.6924 26.1638C25.7459 26.1131 25.8741 26.0229 25.9703 25.9722C26.0664 25.9215 26.1573 25.8596 26.1733 25.837C26.216 25.7694 26.5366 25.6117 26.6274 25.6117C26.6702 25.6117 26.7076 25.5835 26.7076 25.5554C26.7076 25.5216 26.8572 25.499 27.0549 25.499C27.2472 25.499 27.4022 25.5159 27.4022 25.5441C27.4022 25.5666 27.5037 25.6173 27.6266 25.6568C27.7495 25.6962 27.9204 25.8032 28.0113 25.899C28.0968 25.9891 28.1876 26.0624 28.2143 26.0624C28.2357 26.0624 28.2571 26.1018 28.2571 26.1469C28.2571 26.1976 28.2945 26.2483 28.3372 26.2708C28.583 26.3666 28.8074 27.2623 28.7272 27.8369C28.6738 28.2144 28.4708 28.8678 28.3746 28.9692C28.3319 29.0143 28.2143 29.2227 28.1128 29.4312C28.0166 29.6396 27.883 29.8819 27.8296 29.9776C27.7708 30.0678 27.7067 30.1861 27.6854 30.2311C27.6693 30.2762 27.5945 30.3945 27.5251 30.4903C27.4556 30.586 27.4022 30.6818 27.4022 30.7044C27.4022 30.7889 26.6274 31.7522 26.5366 31.786C26.4832 31.8029 26.4404 31.8367 26.4404 31.8592C26.4404 31.9099 25.5054 32.907 25.2276 33.1549C25.1474 33.2281 25.0192 33.3296 24.9444 33.3803C24.8696 33.4253 24.7841 33.4929 24.7521 33.5267C24.7147 33.5549 24.5971 33.6563 24.4849 33.7521C24.378 33.8422 24.2284 33.9774 24.1536 34.045C24.0788 34.1182 24.004 34.1746 23.988 34.1746C23.972 34.1746 23.8705 34.2534 23.7689 34.3436C23.6674 34.4393 23.5392 34.5295 23.4911 34.5464C23.4377 34.5633 23.3949 34.5971 23.3949 34.6253C23.3949 34.6534 23.3201 34.721 23.224 34.7717C23.1278 34.8224 23.0209 34.9013 22.9782 34.9407C22.9408 34.9858 22.8874 35.0196 22.866 35.0196C22.8393 35.0196 22.7645 35.0759 22.6897 35.1435C22.6202 35.2168 22.4813 35.3351 22.3798 35.4139C21.8401 35.8421 21.0868 36.6533 20.8891 37.0138C20.6059 37.549 20.4563 38.118 20.4563 38.6757C20.4616 39.301 20.5738 39.594 20.8517 39.701C20.9585 39.7404 21.044 39.7968 21.044 39.8193C21.044 39.8418 21.199 39.8644 21.3913 39.8644C21.589 39.8644 21.7386 39.8418 21.7386 39.808C21.7386 39.7742 21.776 39.7517 21.8188 39.7517C22.0004 39.7517 22.2622 39.5545 22.4813 39.2447C22.7538 38.8616 22.9354 38.6814 23.1545 38.5687C23.2453 38.5236 23.3415 38.456 23.3789 38.4222C23.4163 38.3828 23.5713 38.3264 23.7262 38.287C23.8812 38.2476 24.0254 38.1912 24.0414 38.1687C24.0735 38.1067 25.0406 37.949 25.3612 37.949C25.484 37.949 25.5856 37.9208 25.5856 37.8927C25.5856 37.8589 25.8955 37.8363 26.4137 37.8363C26.8679 37.8363 27.2419 37.8589 27.2419 37.8814C27.2419 37.9096 27.4984 37.949 27.8136 37.9659C28.4173 38.0053 29.0692 38.1067 29.1119 38.1687C29.1707 38.2476 29.9561 38.3997 30.3034 38.3997C30.5065 38.3997 30.6614 38.4222 30.6614 38.456C30.6614 38.4842 30.7362 38.5123 30.8217 38.5123C30.9125 38.5123 30.982 38.4842 30.982 38.456C30.982 38.4222 31.0782 38.3997 31.1957 38.3997C31.4415 38.3997 32.104 38.2363 32.104 38.18C32.104 38.1574 32.1948 38.1067 32.307 38.0617C32.4139 38.0222 32.6276 37.8476 32.7826 37.6842C33.0657 37.3688 33.1726 37.0814 33.1726 36.6477C33.1726 36.2477 32.7505 35.628 32.4192 35.5548C32.2536 35.5153 31.6712 35.6111 31.6285 35.6843C31.6125 35.7125 31.4842 35.7801 31.3453 35.8364C31.1423 35.9153 30.9873 35.9266 30.5171 35.904C29.7691 35.8702 28.6845 35.7407 28.6845 35.6843C28.6845 35.6618 28.2303 35.6393 27.6693 35.6393C27.0282 35.6393 26.6542 35.6618 26.6542 35.6956C26.6542 35.7238 26.5152 35.7519 26.3496 35.7519C26.0718 35.7576 25.5802 35.8083 25.0513 35.8928L24.8643 35.9266L25.0246 35.8308C25.11 35.7801 25.2116 35.7069 25.2436 35.6674C25.281 35.6336 25.3825 35.566 25.4734 35.5266C25.5642 35.4872 25.639 35.4365 25.639 35.4083C25.639 35.3801 25.7138 35.3182 25.8046 35.2731C25.8901 35.2224 26.0077 35.1379 26.0611 35.0872C26.2695 34.8844 26.5206 34.6816 26.558 34.6816C26.5794 34.6816 26.6435 34.6365 26.6969 34.5802C26.7503 34.5295 26.8839 34.4055 26.9961 34.3154C27.2152 34.1295 28.0327 33.2845 28.2677 33.0084C28.3425 32.9127 28.4441 32.8113 28.4815 32.7831C28.5723 32.7268 29.1654 31.955 29.1654 31.8986C29.1654 31.8761 29.2509 31.7465 29.3524 31.617C29.4539 31.4818 29.5394 31.3466 29.5394 31.3184C29.5394 31.2846 29.5768 31.2283 29.6195 31.1888C29.6676 31.1494 29.7905 30.9466 29.8974 30.7438C30.0042 30.541 30.1164 30.3551 30.1378 30.3382C30.2072 30.2875 30.4317 29.8199 30.64 29.2735C31.3079 27.5383 31.1049 25.8258 30.0737 24.5977C29.5127 23.9217 29.1547 23.578 28.8982 23.4541C28.8234 23.4146 28.7326 23.3583 28.7005 23.3189C28.6257 23.2513 28.1716 23.133 27.9632 23.133C27.8884 23.133 27.8296 23.1048 27.8296 23.0766C27.8296 23.0428 27.696 23.0203 27.5358 23.0203C27.3755 23.0203 27.2419 23.0428 27.2419 23.071Z" fill="#E5E5E5"/>
</g>
<defs>
<filter id="filter0_d_3229_0" x="0" y="7" width="39" height="46.6667" filterUnits="userSpaceOnUse" color-interpolation-filters="sRGB">
<feFlood flood-opacity="0" result="BackgroundImageFix"/>
<feColorMatrix in="SourceAlpha" type="matrix" values="0 0 0 0 0 0 0 0 0 0 0 0 0 0 0 0 0 0 127 0" result="hardAlpha"/>
<feOffset dy="4"/>
<feGaussianBlur stdDeviation="2"/>
<feComposite in2="hardAlpha" operator="out"/>
<feColorMatrix type="matrix" values="0 0 0 0 0 0 0 0 0 0 0 0 0 0 0 0 0 0 0.25 0"/>
<feBlend mode="normal" in2="BackgroundImageFix" result="effect1_dropShadow_3229_0"/>
<feBlend mode="normal" in="SourceGraphic" in2="effect1_dropShadow_3229_0" result="shape"/>
</filter>
</defs>
</svg>
