<svg width="36" height="36" viewBox="0 0 36 36" fill="none" xmlns="http://www.w3.org/2000/svg">
<path d="M22.8133 20.177C21.6969 20.7097 20.5436 21.6098 20.5436 21.9466C20.5436 22.8712 21.3288 22.9692 22.2121 22.1548C23.3838 21.0771 24.3898 20.8383 25.0339 21.4812C25.9786 22.4242 24.6229 24.2918 21.6846 26.1043C19.9793 27.1514 19.4395 27.7148 19.4395 28.4312C19.4395 29.1292 20.1633 29.2088 20.9607 28.5965C21.8564 27.9168 23.4758 27.7392 25.5246 28.1066C27.5919 28.4679 28.9537 27.9168 28.3341 26.9738C28.1501 26.6922 28.0765 26.6677 27.6778 26.7473C26.9662 26.8942 22.5741 26.8942 22.8256 26.7473C24.58 25.7308 26.0522 24.3653 26.6288 23.2325C27.7759 20.973 25.2977 18.9952 22.8133 20.177Z" fill="#D2453C"/>
<path d="M16.7404 0.0680508C6.91948 1.02941 -0.0183663 8.48145 3.65229e-05 18.0522C0.0307078 33.44 17.8998 41.5962 29.7573 31.6275C36.7688 25.7308 38.0631 15.0762 32.6772 7.53847C29.1132 2.54798 22.6048 -0.501415 16.7404 0.0680508ZM20.6909 2.499C26.3958 3.49097 31.432 7.93648 33.033 13.3985C36.0265 23.5815 28.5918 33.6665 18.0961 33.6665H16.6607L16.5748 28.3209C16.5319 25.3756 16.4951 21.9037 16.4951 20.6056V18.2359H23.1323H29.7696L29.7144 15.5722C29.653 12.5412 29.5549 12.0819 28.7574 11.2675C27.3343 9.79796 25.0339 9.35096 19.0101 9.36933C11.5263 9.3877 9.63696 9.78571 8.12793 11.6349C6.93788 13.1045 6.92562 13.1903 6.91948 21.9037L6.91335 29.1965L6.24471 28.4617C-3.68052 17.55 6.10362 -0.0421684 20.6909 2.499ZM26.224 11.7513C28.7636 12.4555 28.279 16.2152 25.6412 16.2152C22.9667 16.209 22.476 12.5167 25.0524 11.7452C25.5186 11.6043 25.6903 11.6043 26.224 11.7513Z" fill="#D2453C"/>
</svg>